<svg width="178" height="178" viewBox="0 0 178 178" fill="none" xmlns="http://www.w3.org/2000/svg">
<g clip-path="url(#clip0_1096_222)">
<rect width="177.075" height="177.075" rx="11.0672" fill="#55573E"/>
<path d="M75.4011 92.2124C76.0738 92.7965 76.6901 93.4426 77.2417 94.1423C77.2578 94.3038 77.2919 94.5011 77.3223 94.6804C78.9357 91.3511 81.452 88.5428 84.5839 86.5764C87.7158 84.61 91.3372 83.5647 95.0344 83.5598C97.1803 83.551 99.3128 83.2203 101.361 82.5787C100.741 82.3079 100.155 82.0693 99.6833 81.8899L97.3642 79.7698C97.2521 79.6672 97.1275 79.5792 96.9932 79.508C94.686 78.6118 92.2574 78.0676 89.7887 77.8937C88.5265 77.1027 87.1746 76.4651 85.7617 75.9942C83.4562 75.9034 81.1575 76.2981 79.0141 77.1529C78.6944 77.2594 78.4107 77.4532 78.1951 77.7125C76.4549 79.8165 72.4082 85.0163 72.4082 87.8251C72.4082 89.3946 73.7953 90.7003 75.4011 92.2124Z" fill="white"/>
<path d="M81.3802 128.01C81.3815 127.268 81.5365 126.535 81.8354 125.857C74.9396 124.955 68.4308 122.149 63.0373 117.755L65.2776 114.394C66.6527 114.019 67.8652 113.199 68.7257 112.062C70.6039 108.678 68.3762 103.842 67.6181 102.377C67.5482 101.056 67.3134 99.7499 66.9192 98.488C65.9604 96.995 64.5746 95.8256 62.9424 95.1321C61.6739 93.1284 60.8212 90.8897 60.4351 88.5494C60.4152 88.1722 60.472 87.7948 60.6019 87.4402C60.7318 87.0855 60.9323 86.7609 61.1911 86.486C61.4499 86.2111 61.7617 85.9915 62.1077 85.8405C62.4536 85.6896 62.8266 85.6104 63.204 85.6078C65.495 85.1571 67.5208 83.832 68.8529 81.9129C70.8692 81.4312 72.6699 80.2962 73.975 78.6843C75.0323 76.8315 74.0556 72.9572 73.2581 70.5214C73.5964 68.8688 73.5275 67.1586 73.0574 65.5386C72.406 63.9782 71.3551 62.6171 70.0107 61.5926C69.2238 59.7936 68.2167 58.0993 67.0124 56.5489C71.1736 53.9666 75.8016 52.2285 80.6329 51.4334C80.091 52.4927 79.9559 53.7141 80.2529 54.8664C81.0775 56.3006 82.4272 57.3575 84.0165 57.8134C83.8282 58.7693 83.8768 59.7567 84.158 60.6894C84.4392 61.6221 84.9444 62.4717 85.6295 63.1639C86.412 63.6628 87.3039 63.9643 88.2285 64.0424C89.1531 64.1205 90.0828 63.9729 90.9379 63.6123L90.9755 63.6033C91.1359 65.2441 91.1838 66.8939 91.1189 68.5412C91.1031 69.0068 91.2689 69.4603 91.5813 69.8057C91.9576 70.2219 95.3735 73.8899 99.1084 74.4136C99.3115 74.4418 99.5163 74.4555 99.7213 74.4549C103.126 74.4549 106.962 70.7618 108.358 69.2874C111.375 68.5716 114.342 67.6578 117.24 66.5521C119.605 69.8269 122.271 74.8195 123.485 78.673C124.42 77.8542 125.827 77.8206 127.069 77.7762C124.819 70.7297 119.657 62.6217 114.133 57.7066C108.609 52.7915 101.866 49.4535 94.61 48.042C87.3543 46.6306 79.8528 47.1978 72.8914 49.6841C65.9299 52.1704 59.7644 56.4844 55.0408 62.1743C50.3172 67.8642 47.2092 74.7205 46.0423 82.0253C44.8754 89.3302 45.6926 96.8146 48.4082 103.695C51.1238 110.575 55.638 116.598 61.478 121.132C67.3179 125.667 74.2687 128.547 81.6024 129.47C81.4609 128.996 81.3861 128.504 81.3802 128.01Z" fill="white"/>
<path d="M133.355 77.0273C105.233 78.9344 91.2117 101.263 87.7163 112.19C90.4659 114.245 98.8184 117.839 110.231 115.774C121.644 113.71 124.491 105.156 124.488 101.137C133.134 95.8184 128.946 87.5995 133.355 77.0273Z" fill="#ACAC8F" fill-opacity="0.17"/>
<path d="M123.384 101.069C121.481 115.891 108.434 117.586 95.3867 115.2" stroke="white" stroke-width="0.664032" stroke-linecap="round" stroke-linejoin="round"/>
<path d="M81.4546 129.264C81.4546 129.264 86.798 81.1186 132.364 77.0273C130.083 81.106 130.03 87.9136 128.511 94.742C126.377 103.146 119.001 104.191 109.964 104.191" stroke="white" stroke-width="0.664032" stroke-linecap="round" stroke-linejoin="round"/>
</g>
<defs>
<clipPath id="clip0_1096_222">
<rect width="177.075" height="177.075" rx="10.6245" fill="white"/>
</clipPath>
</defs>
</svg>
